<mxfile host="Electron" modified="2023-09-22T03:36:13.625Z" agent="Mozilla/5.0 (Windows NT 10.0; Win64; x64) AppleWebKit/537.36 (KHTML, like Gecko) draw.io/21.6.8 Chrome/114.0.5735.289 Electron/25.5.0 Safari/537.36" etag="RNF6IgowjGyxJHTohDc9" version="21.6.8" type="device">
  <diagram name="Page-1" id="64c3da0e-402f-94eb-ee01-a36477274f13">
    <mxGraphModel dx="2590" dy="1633" grid="0" gridSize="10" guides="1" tooltips="1" connect="1" arrows="1" fold="1" page="1" pageScale="1" pageWidth="1150" pageHeight="2000" background="#ffffff" math="0" shadow="0">
      <root>
        <mxCell id="0" />
        <mxCell id="1" parent="0" />
        <mxCell id="2" value="SISTEMA OPTOELECTRÓNICO" style="whiteSpace=wrap;rounded=1;shadow=1;fillColor=#10739E;strokeColor=none;fontColor=#FFFFFF;fontStyle=1;fontSize=24;html=1;" parent="1" vertex="1">
          <mxGeometry x="415" y="20" width="340" height="60" as="geometry" />
        </mxCell>
        <mxCell id="3" value="IMPLEMENTAR EL MONTAJE EXPERIMENTAL PROPUESTO EN [1]" style="whiteSpace=wrap;rounded=1;fillColor=#000000;strokeColor=none;shadow=1;fontColor=#FFFFFF;fontStyle=1;fontSize=14;html=1;" parent="1" vertex="1">
          <mxGeometry x="185" y="160" width="190" height="80" as="geometry" />
        </mxCell>
        <mxCell id="4" value="DESARROLLAR UN MECANÍSMO PARA MEDIR LA PUPÍLA" style="whiteSpace=wrap;rounded=1;fillColor=#e3c800;strokeColor=#B09500;shadow=1;fontStyle=1;fontSize=14;fontColor=#000000;html=1;" parent="1" vertex="1">
          <mxGeometry x="740" y="160" width="160" height="70" as="geometry" />
        </mxCell>
        <mxCell id="6" value="REALIZAR EXPERIMENTO CON PERSONAS PARA EVALUAR LA PUPÍLA" style="whiteSpace=wrap;rounded=1;fillColor=#fa6800;strokeColor=#C73500;shadow=1;fontColor=#000000;fontStyle=1;fontSize=14;html=1;" parent="1" vertex="1">
          <mxGeometry x="740" y="760" width="180" height="70" as="geometry" />
        </mxCell>
        <mxCell id="7" value="ANALIZAR LOS RESULTADOS OBTENIDOS" style="whiteSpace=wrap;rounded=1;fillColor=#CC0000;strokeColor=#B20000;shadow=1;fontColor=#ffffff;fontStyle=1;fontSize=14;html=1;" parent="1" vertex="1">
          <mxGeometry x="160" y="759.9999999999998" width="140" height="60" as="geometry" />
        </mxCell>
        <mxCell id="10" value="Montaje Experimental" style="whiteSpace=wrap;rounded=1;fillColor=#555;strokeColor=none;shadow=1;fontColor=#FFFFFF;fontStyle=1;html=1;" parent="1" vertex="1">
          <mxGeometry x="50" y="300.0000000000001" width="120" height="60" as="geometry" />
        </mxCell>
        <mxCell id="12" value="Medición señales EMG" style="whiteSpace=wrap;rounded=1;fillColor=#555;strokeColor=none;shadow=1;fontColor=#FFFFFF;fontStyle=1;html=1;" parent="1" vertex="1">
          <mxGeometry x="220" y="300.0000000000001" width="120" height="60" as="geometry" />
        </mxCell>
        <mxCell id="23" value="Adquirir los elementos necesarios para el montaje." style="whiteSpace=wrap;rounded=1;fillColor=#e1d5e7;strokeColor=#9673a6;shadow=1;fontStyle=0;fontColor=#000000;html=1;" parent="1" vertex="1">
          <mxGeometry x="49.99999999999996" y="400.0000000000001" width="120" height="60" as="geometry" />
        </mxCell>
        <mxCell id="24" value="Armar el montaje experimental." style="whiteSpace=wrap;rounded=1;fillColor=#e1d5e7;strokeColor=#9673a6;shadow=1;fontStyle=0;fontColor=#000000;html=1;" parent="1" vertex="1">
          <mxGeometry x="50.0000000000001" y="480.0000000000001" width="120" height="60" as="geometry" />
        </mxCell>
        <mxCell id="38" value="Adquirir los sistemas para capturar señales EMG." style="whiteSpace=wrap;rounded=1;fillColor=#e1d5e7;strokeColor=#9673a6;shadow=1;fontStyle=0;fontColor=#000000;html=1;" parent="1" vertex="1">
          <mxGeometry x="219.9999999999996" y="400.0000000000001" width="120" height="60" as="geometry" />
        </mxCell>
        <mxCell id="39" value="Realizar una prueba experimental para medir señales EMG." style="whiteSpace=wrap;rounded=1;fillColor=#e1d5e7;strokeColor=#9673a6;shadow=1;fontStyle=0;fontColor=#000000;html=1;" parent="1" vertex="1">
          <mxGeometry x="219.99999999999977" y="480.0000000000001" width="120" height="60" as="geometry" />
        </mxCell>
        <mxCell id="40" value="Comporbar la correcta recepción de las señales en LabView." style="whiteSpace=wrap;rounded=1;fillColor=#e1d5e7;strokeColor=#9673a6;shadow=1;fontStyle=0;fontColor=#000000;html=1;" parent="1" vertex="1">
          <mxGeometry x="219.99999999999972" y="560.0000000000001" width="120" height="60" as="geometry" />
        </mxCell>
        <mxCell id="43" value="Conseguir los implementos" style="whiteSpace=wrap;rounded=1;fillColor=#D4D471;strokeColor=#36393d;shadow=1;fontColor=#000000;fontStyle=1;html=1;" parent="1" vertex="1">
          <mxGeometry x="579.9999999999998" y="300.0000000000001" width="120" height="60" as="geometry" />
        </mxCell>
        <mxCell id="44" value="Realizar el mecanismo de medición." style="whiteSpace=wrap;rounded=1;fillColor=#D4D471;strokeColor=#36393d;shadow=1;fontColor=#000000;fontStyle=1;html=1;" parent="1" vertex="1">
          <mxGeometry x="759.9999999999998" y="300.0000000000001" width="120" height="60" as="geometry" />
        </mxCell>
        <mxCell id="45" value="Adquirir una camara con vision infrarroja." style="whiteSpace=wrap;rounded=1;fillColor=#fff2cc;strokeColor=#d6b656;shadow=1;fontStyle=0;fontColor=#000000;html=1;" parent="1" vertex="1">
          <mxGeometry x="580" y="390" width="130" height="50" as="geometry" />
        </mxCell>
        <mxCell id="46" value="Adquirir una luz infrarrojan." style="whiteSpace=wrap;rounded=1;fillColor=#fff2cc;strokeColor=#d6b656;shadow=1;fontStyle=0;fontColor=#000000;html=1;" parent="1" vertex="1">
          <mxGeometry x="580" y="460" width="140" height="60" as="geometry" />
        </mxCell>
        <mxCell id="50" value="Determinar los parametros del sistema de medición" style="whiteSpace=wrap;rounded=1;fillColor=#fff2cc;strokeColor=#d6b656;shadow=1;fontStyle=0;fontColor=#000000;html=1;" parent="1" vertex="1">
          <mxGeometry x="759.9999999999993" y="400.0000000000001" width="120" height="60" as="geometry" />
        </mxCell>
        <mxCell id="51" value="Montar el mecanismo de medición dentro del montaje experimental." style="whiteSpace=wrap;rounded=1;fillColor=#fff2cc;strokeColor=#d6b656;shadow=1;fontStyle=0;fontColor=#000000;html=1;" parent="1" vertex="1">
          <mxGeometry x="759.9999999999995" y="480.0000000000001" width="120" height="60" as="geometry" />
        </mxCell>
        <mxCell id="103" value="" style="edgeStyle=elbowEdgeStyle;elbow=vertical;rounded=0;fontColor=#000000;endArrow=none;endFill=0;strokeWidth=8;strokeColor=#23445D;html=1;" parent="1" target="10" edge="1">
          <mxGeometry width="100" height="100" relative="1" as="geometry">
            <mxPoint x="280" y="240" as="sourcePoint" />
            <mxPoint x="70" y="190" as="targetPoint" />
          </mxGeometry>
        </mxCell>
        <mxCell id="104" value="" style="edgeStyle=elbowEdgeStyle;elbow=vertical;rounded=0;fontColor=#000000;endArrow=none;endFill=0;strokeWidth=8;strokeColor=#23445D;exitX=0.5;exitY=1;exitDx=0;exitDy=0;html=1;" parent="1" source="3" target="12" edge="1">
          <mxGeometry width="100" height="100" relative="1" as="geometry">
            <mxPoint x="190" y="250" as="sourcePoint" />
            <mxPoint x="395" y="190" as="targetPoint" />
          </mxGeometry>
        </mxCell>
        <mxCell id="105" value="" style="edgeStyle=elbowEdgeStyle;elbow=horizontal;rounded=0;fontColor=#000000;endArrow=none;endFill=0;strokeWidth=8;strokeColor=#23445D;html=1;" parent="1" source="10" target="23" edge="1">
          <mxGeometry width="100" height="100" relative="1" as="geometry">
            <mxPoint x="-10" y="480" as="sourcePoint" />
            <mxPoint x="90" y="380" as="targetPoint" />
            <Array as="points">
              <mxPoint x="30" y="380" />
            </Array>
          </mxGeometry>
        </mxCell>
        <mxCell id="106" value="" style="edgeStyle=elbowEdgeStyle;elbow=horizontal;rounded=0;fontColor=#000000;endArrow=none;endFill=0;strokeWidth=8;strokeColor=#23445D;html=1;" parent="1" source="10" target="24" edge="1">
          <mxGeometry width="100" height="100" relative="1" as="geometry">
            <mxPoint x="60" y="340" as="sourcePoint" />
            <mxPoint x="60" y="440" as="targetPoint" />
            <Array as="points">
              <mxPoint x="30" y="400" />
            </Array>
          </mxGeometry>
        </mxCell>
        <mxCell id="111" value="" style="edgeStyle=elbowEdgeStyle;elbow=horizontal;rounded=0;fontColor=#000000;endArrow=none;endFill=0;strokeWidth=8;strokeColor=#23445D;html=1;" parent="1" target="38" edge="1">
          <mxGeometry width="100" height="100" relative="1" as="geometry">
            <mxPoint x="210" y="330.0000000000004" as="sourcePoint" />
            <mxPoint x="210" y="430.0000000000004" as="targetPoint" />
            <Array as="points">
              <mxPoint x="200" y="380" />
            </Array>
          </mxGeometry>
        </mxCell>
        <mxCell id="112" value="" style="edgeStyle=elbowEdgeStyle;elbow=horizontal;rounded=0;fontColor=#000000;endArrow=none;endFill=0;strokeWidth=8;strokeColor=#23445D;html=1;" parent="1" source="12" target="39" edge="1">
          <mxGeometry width="100" height="100" relative="1" as="geometry">
            <mxPoint x="210" y="330.0000000000004" as="sourcePoint" />
            <mxPoint x="210" y="510.0000000000004" as="targetPoint" />
            <Array as="points">
              <mxPoint x="200" y="420" />
            </Array>
          </mxGeometry>
        </mxCell>
        <mxCell id="115" value="" style="edgeStyle=elbowEdgeStyle;elbow=horizontal;rounded=0;fontColor=#000000;endArrow=none;endFill=0;strokeWidth=8;strokeColor=#23445D;html=1;" parent="1" source="12" target="40" edge="1">
          <mxGeometry width="100" height="100" relative="1" as="geometry">
            <mxPoint x="210" y="330.0000000000004" as="sourcePoint" />
            <mxPoint x="210" y="590.0000000000003" as="targetPoint" />
            <Array as="points">
              <mxPoint x="200" y="460" />
            </Array>
          </mxGeometry>
        </mxCell>
        <mxCell id="116" value="" style="edgeStyle=elbowEdgeStyle;elbow=vertical;rounded=0;fontColor=#000000;endArrow=none;endFill=0;strokeWidth=8;strokeColor=#23445D;html=1;" parent="1" source="4" target="43" edge="1">
          <mxGeometry width="100" height="100" relative="1" as="geometry">
            <mxPoint x="480" y="239.99999999999977" as="sourcePoint" />
            <mxPoint x="380" y="310" as="targetPoint" />
          </mxGeometry>
        </mxCell>
        <mxCell id="117" value="" style="edgeStyle=elbowEdgeStyle;elbow=vertical;rounded=0;fontColor=#000000;endArrow=none;endFill=0;strokeWidth=8;strokeColor=#23445D;html=1;" parent="1" source="4" target="44" edge="1">
          <mxGeometry width="100" height="100" relative="1" as="geometry">
            <mxPoint x="480" y="239.99999999999977" as="sourcePoint" />
            <mxPoint x="580" y="310" as="targetPoint" />
          </mxGeometry>
        </mxCell>
        <mxCell id="118" value="" style="edgeStyle=elbowEdgeStyle;elbow=horizontal;rounded=0;fontColor=#000000;endArrow=none;endFill=0;strokeWidth=8;strokeColor=#23445D;html=1;" parent="1" source="43" target="45" edge="1">
          <mxGeometry width="100" height="100" relative="1" as="geometry">
            <mxPoint x="560" y="330.00000000000045" as="sourcePoint" />
            <mxPoint x="569.9999999999995" y="430" as="targetPoint" />
            <Array as="points">
              <mxPoint x="560" y="380" />
            </Array>
          </mxGeometry>
        </mxCell>
        <mxCell id="119" value="" style="edgeStyle=elbowEdgeStyle;elbow=horizontal;rounded=0;fontColor=#000000;endArrow=none;endFill=0;strokeWidth=8;strokeColor=#23445D;html=1;" parent="1" source="43" target="46" edge="1">
          <mxGeometry width="100" height="100" relative="1" as="geometry">
            <mxPoint x="570" y="330" as="sourcePoint" />
            <mxPoint x="569.9999999999998" y="510" as="targetPoint" />
            <Array as="points">
              <mxPoint x="560" y="420" />
            </Array>
          </mxGeometry>
        </mxCell>
        <mxCell id="123" value="" style="edgeStyle=elbowEdgeStyle;elbow=horizontal;rounded=0;fontColor=#000000;endArrow=none;endFill=0;strokeWidth=8;strokeColor=#23445D;html=1;" parent="1" source="44" target="50" edge="1">
          <mxGeometry width="100" height="100" relative="1" as="geometry">
            <mxPoint x="730" y="330.00000000000045" as="sourcePoint" />
            <mxPoint x="739.9999999999995" y="430" as="targetPoint" />
            <Array as="points">
              <mxPoint x="740" y="380" />
            </Array>
          </mxGeometry>
        </mxCell>
        <mxCell id="124" value="" style="edgeStyle=elbowEdgeStyle;elbow=horizontal;rounded=0;fontColor=#000000;endArrow=none;endFill=0;strokeWidth=8;strokeColor=#23445D;html=1;" parent="1" source="44" target="51" edge="1">
          <mxGeometry width="100" height="100" relative="1" as="geometry">
            <mxPoint x="740" y="330" as="sourcePoint" />
            <mxPoint x="739.9999999999998" y="510" as="targetPoint" />
            <Array as="points">
              <mxPoint x="740" y="420" />
            </Array>
          </mxGeometry>
        </mxCell>
        <mxCell id="133" value="Plantear una pregunta de investigación" style="whiteSpace=wrap;rounded=1;fillColor=#CF884A;strokeColor=#C73500;shadow=1;fontColor=#000000;fontStyle=1;html=1;" parent="1" vertex="1">
          <mxGeometry x="519.9999999999998" y="900.0000000000001" width="120" height="60" as="geometry" />
        </mxCell>
        <mxCell id="135" value="Estudiar el comportameinto de la pupila en el montaje experimetnal." style="whiteSpace=wrap;rounded=1;fillColor=#fad7ac;strokeColor=#b46504;shadow=1;fontStyle=0;fontColor=#000000;html=1;" parent="1" vertex="1">
          <mxGeometry x="520" y="1000" width="120" height="70" as="geometry" />
        </mxCell>
        <mxCell id="145" value="" style="edgeStyle=elbowEdgeStyle;elbow=horizontal;rounded=0;fontColor=#000000;endArrow=none;endFill=0;strokeWidth=8;strokeColor=#23445D;html=1;" parent="1" source="133" target="135" edge="1">
          <mxGeometry width="100" height="100" relative="1" as="geometry">
            <mxPoint x="500" y="930.0000000000005" as="sourcePoint" />
            <mxPoint x="509.99999999999955" y="1030" as="targetPoint" />
            <Array as="points">
              <mxPoint x="500" y="980" />
            </Array>
          </mxGeometry>
        </mxCell>
        <mxCell id="155" value="Preparar los Datos" style="whiteSpace=wrap;rounded=1;fillColor=#CC0000;strokeColor=#B20000;shadow=1;fontColor=#ffffff;fontStyle=1;html=1;" parent="1" vertex="1">
          <mxGeometry x="39.99999999999977" y="890.0000000000002" width="120" height="60" as="geometry" />
        </mxCell>
        <mxCell id="156" value="Analizar Datos" style="whiteSpace=wrap;rounded=1;fillColor=#CC0000;strokeColor=#B20000;shadow=1;fontColor=#ffffff;fontStyle=1;html=1;" parent="1" vertex="1">
          <mxGeometry x="200" y="890.0000000000002" width="120" height="60" as="geometry" />
        </mxCell>
        <mxCell id="157" value="Recolectar y ordenar los datos ." style="whiteSpace=wrap;rounded=1;fillColor=#ffcccc;strokeColor=#36393d;shadow=1;fontStyle=0;fontColor=#000000;html=1;" parent="1" vertex="1">
          <mxGeometry x="40" y="990" width="120" height="60" as="geometry" />
        </mxCell>
        <mxCell id="158" value="Determinar la herramienta para analizar los datos" style="whiteSpace=wrap;rounded=1;fillColor=#ffcccc;strokeColor=#36393d;shadow=1;fontStyle=0;fontColor=#000000;html=1;" parent="1" vertex="1">
          <mxGeometry x="40" y="1070.0000000000002" width="120" height="60" as="geometry" />
        </mxCell>
        <mxCell id="162" value="Visualizar los datos" style="whiteSpace=wrap;rounded=1;fillColor=#ffcccc;strokeColor=#36393d;shadow=1;fontStyle=0;fontColor=#000000;html=1;" parent="1" vertex="1">
          <mxGeometry x="199.9999999999991" y="990.0000000000002" width="120" height="60" as="geometry" />
        </mxCell>
        <mxCell id="163" value="Verificar la validez de los datos del algoritmo usando los datos originales como referencia" style="whiteSpace=wrap;rounded=1;fillColor=#ffcccc;strokeColor=#36393d;shadow=1;fontStyle=0;fontColor=#000000;html=1;" parent="1" vertex="1">
          <mxGeometry x="200" y="1070" width="120" height="80" as="geometry" />
        </mxCell>
        <mxCell id="164" value="Relacionar el diametro de la pupíla con las señales de control." style="whiteSpace=wrap;rounded=1;fillColor=#ffcccc;strokeColor=#36393d;shadow=1;fontStyle=0;fontColor=#000000;html=1;" parent="1" vertex="1">
          <mxGeometry x="199.99999999999955" y="1180.0000000000002" width="120" height="60" as="geometry" />
        </mxCell>
        <mxCell id="167" value="" style="edgeStyle=elbowEdgeStyle;elbow=horizontal;rounded=0;fontColor=#000000;endArrow=none;endFill=0;strokeWidth=8;strokeColor=#23445D;html=1;" parent="1" source="155" target="157" edge="1">
          <mxGeometry width="100" height="100" relative="1" as="geometry">
            <mxPoint x="20" y="920.0000000000005" as="sourcePoint" />
            <mxPoint x="29.999999999999545" y="1020" as="targetPoint" />
            <Array as="points">
              <mxPoint x="20" y="970" />
            </Array>
          </mxGeometry>
        </mxCell>
        <mxCell id="168" value="" style="edgeStyle=elbowEdgeStyle;elbow=horizontal;rounded=0;fontColor=#000000;endArrow=none;endFill=0;strokeWidth=8;strokeColor=#23445D;html=1;" parent="1" source="155" target="158" edge="1">
          <mxGeometry width="100" height="100" relative="1" as="geometry">
            <mxPoint x="30" y="920" as="sourcePoint" />
            <mxPoint x="29.999999999999773" y="1100" as="targetPoint" />
            <Array as="points">
              <mxPoint x="20" y="1010" />
            </Array>
          </mxGeometry>
        </mxCell>
        <mxCell id="172" value="" style="edgeStyle=elbowEdgeStyle;elbow=horizontal;rounded=0;fontColor=#000000;endArrow=none;endFill=0;strokeWidth=8;strokeColor=#23445D;html=1;" parent="1" source="156" target="162" edge="1">
          <mxGeometry width="100" height="100" relative="1" as="geometry">
            <mxPoint x="170" y="920.0000000000005" as="sourcePoint" />
            <mxPoint x="179.99999999999955" y="1020" as="targetPoint" />
            <Array as="points">
              <mxPoint x="180" y="970" />
            </Array>
          </mxGeometry>
        </mxCell>
        <mxCell id="173" value="" style="edgeStyle=elbowEdgeStyle;elbow=horizontal;rounded=0;fontColor=#000000;endArrow=none;endFill=0;strokeWidth=8;strokeColor=#23445D;html=1;" parent="1" source="156" target="163" edge="1">
          <mxGeometry width="100" height="100" relative="1" as="geometry">
            <mxPoint x="180" y="920" as="sourcePoint" />
            <mxPoint x="180" y="1100" as="targetPoint" />
            <Array as="points">
              <mxPoint x="180" y="1010" />
            </Array>
          </mxGeometry>
        </mxCell>
        <mxCell id="176" value="" style="edgeStyle=elbowEdgeStyle;elbow=horizontal;rounded=0;fontColor=#000000;endArrow=none;endFill=0;strokeWidth=8;strokeColor=#23445D;html=1;" parent="1" source="156" target="164" edge="1">
          <mxGeometry width="100" height="100" relative="1" as="geometry">
            <mxPoint x="180" y="920" as="sourcePoint" />
            <mxPoint x="180" y="1180" as="targetPoint" />
            <Array as="points">
              <mxPoint x="180" y="1060" />
            </Array>
          </mxGeometry>
        </mxCell>
        <mxCell id="221" value="" style="edgeStyle=elbowEdgeStyle;elbow=vertical;rounded=0;fontColor=#000000;endArrow=none;endFill=0;strokeWidth=8;strokeColor=#23445D;html=1;" parent="1" source="6" target="133" edge="1">
          <mxGeometry width="100" height="100" relative="1" as="geometry">
            <mxPoint x="540" y="870" as="sourcePoint" />
            <mxPoint x="640" y="770" as="targetPoint" />
          </mxGeometry>
        </mxCell>
        <mxCell id="223" value="" style="edgeStyle=elbowEdgeStyle;elbow=vertical;rounded=0;fontColor=#000000;endArrow=none;endFill=0;strokeWidth=8;strokeColor=#23445D;html=1;" parent="1" source="7" target="155" edge="1">
          <mxGeometry width="100" height="100" relative="1" as="geometry">
            <mxPoint x="220" y="890" as="sourcePoint" />
            <mxPoint x="120" y="780" as="targetPoint" />
          </mxGeometry>
        </mxCell>
        <mxCell id="229" value="" style="edgeStyle=elbowEdgeStyle;elbow=vertical;rounded=0;fontColor=#000000;endArrow=none;endFill=0;strokeWidth=8;strokeColor=#23445D;html=1;" parent="1" source="2" target="3" edge="1">
          <mxGeometry width="100" height="100" relative="1" as="geometry">
            <mxPoint x="540" y="140" as="sourcePoint" />
            <mxPoint x="640" y="40" as="targetPoint" />
          </mxGeometry>
        </mxCell>
        <mxCell id="230" value="" style="edgeStyle=elbowEdgeStyle;elbow=vertical;rounded=0;fontColor=#000000;endArrow=none;endFill=0;strokeWidth=8;strokeColor=#23445D;exitX=0.5;exitY=1;exitDx=0;exitDy=0;html=1;" parent="1" source="2" target="4" edge="1">
          <mxGeometry width="100" height="100" relative="1" as="geometry">
            <mxPoint x="550" y="150" as="sourcePoint" />
            <mxPoint x="650" y="50" as="targetPoint" />
            <Array as="points">
              <mxPoint x="700" y="120" />
            </Array>
          </mxGeometry>
        </mxCell>
        <mxCell id="231" value="" style="edgeStyle=elbowEdgeStyle;elbow=vertical;rounded=0;fontColor=#000000;endArrow=none;endFill=0;strokeWidth=8;strokeColor=#23445D;entryX=0.5;entryY=0;entryDx=0;entryDy=0;html=1;" parent="1" target="6" edge="1">
          <mxGeometry width="100" height="100" relative="1" as="geometry">
            <mxPoint x="1140" y="120" as="sourcePoint" />
            <mxPoint x="250" y="760" as="targetPoint" />
            <Array as="points">
              <mxPoint x="1140" y="730" />
            </Array>
          </mxGeometry>
        </mxCell>
        <mxCell id="232" value="" style="edgeStyle=elbowEdgeStyle;elbow=vertical;rounded=0;fontColor=#000000;endArrow=none;endFill=0;strokeWidth=8;strokeColor=#23445D;exitX=0.5;exitY=1;exitDx=0;exitDy=0;html=1;" parent="1" source="2" edge="1">
          <mxGeometry width="100" height="100" relative="1" as="geometry">
            <mxPoint x="790" y="80" as="sourcePoint" />
            <mxPoint x="1140" y="730" as="targetPoint" />
            <Array as="points">
              <mxPoint x="1240" y="120" />
            </Array>
          </mxGeometry>
        </mxCell>
        <mxCell id="cabQjhXbvlF2Ede-UtL3-233" value="Control con LabViEW" style="whiteSpace=wrap;rounded=1;fillColor=#555;strokeColor=none;shadow=1;fontColor=#FFFFFF;fontStyle=1;html=1;" parent="1" vertex="1">
          <mxGeometry x="390" y="300" width="110" height="60" as="geometry" />
        </mxCell>
        <mxCell id="cabQjhXbvlF2Ede-UtL3-234" value="Adquirir los programas de control existentes." style="whiteSpace=wrap;rounded=1;fillColor=#e1d5e7;strokeColor=#9673a6;shadow=1;fontStyle=0;fontColor=#000000;html=1;" parent="1" vertex="1">
          <mxGeometry x="389.9999999999996" y="400.0000000000001" width="120" height="60" as="geometry" />
        </mxCell>
        <mxCell id="cabQjhXbvlF2Ede-UtL3-235" value="Entender las diferentes interfaces implementadas." style="whiteSpace=wrap;rounded=1;fillColor=#e1d5e7;strokeColor=#9673a6;shadow=1;fontStyle=0;fontColor=#000000;html=1;" parent="1" vertex="1">
          <mxGeometry x="389.9999999999998" y="480.0000000000001" width="120" height="60" as="geometry" />
        </mxCell>
        <mxCell id="cabQjhXbvlF2Ede-UtL3-236" value="Verificar la controlabilidad del sistema." style="whiteSpace=wrap;rounded=1;fillColor=#e1d5e7;strokeColor=#9673a6;shadow=1;fontStyle=0;fontColor=#000000;html=1;" parent="1" vertex="1">
          <mxGeometry x="389.9999999999997" y="560.0000000000001" width="120" height="60" as="geometry" />
        </mxCell>
        <mxCell id="cabQjhXbvlF2Ede-UtL3-237" value="" style="edgeStyle=elbowEdgeStyle;elbow=horizontal;rounded=0;fontColor=#000000;endArrow=none;endFill=0;strokeWidth=8;strokeColor=#23445D;html=1;" parent="1" target="cabQjhXbvlF2Ede-UtL3-234" edge="1">
          <mxGeometry width="100" height="100" relative="1" as="geometry">
            <mxPoint x="380" y="330.0000000000004" as="sourcePoint" />
            <mxPoint x="380" y="430.0000000000004" as="targetPoint" />
            <Array as="points">
              <mxPoint x="370" y="380" />
            </Array>
          </mxGeometry>
        </mxCell>
        <mxCell id="cabQjhXbvlF2Ede-UtL3-238" value="" style="edgeStyle=elbowEdgeStyle;elbow=horizontal;rounded=0;fontColor=#000000;endArrow=none;endFill=0;strokeWidth=8;strokeColor=#23445D;html=1;" parent="1" source="cabQjhXbvlF2Ede-UtL3-233" target="cabQjhXbvlF2Ede-UtL3-235" edge="1">
          <mxGeometry width="100" height="100" relative="1" as="geometry">
            <mxPoint x="380" y="330.0000000000004" as="sourcePoint" />
            <mxPoint x="380" y="510.00000000000045" as="targetPoint" />
            <Array as="points">
              <mxPoint x="370" y="420" />
            </Array>
          </mxGeometry>
        </mxCell>
        <mxCell id="cabQjhXbvlF2Ede-UtL3-239" value="" style="edgeStyle=elbowEdgeStyle;elbow=horizontal;rounded=0;fontColor=#000000;endArrow=none;endFill=0;strokeWidth=8;strokeColor=#23445D;html=1;" parent="1" source="cabQjhXbvlF2Ede-UtL3-233" target="cabQjhXbvlF2Ede-UtL3-236" edge="1">
          <mxGeometry width="100" height="100" relative="1" as="geometry">
            <mxPoint x="380" y="330.0000000000004" as="sourcePoint" />
            <mxPoint x="380" y="590.0000000000003" as="targetPoint" />
            <Array as="points">
              <mxPoint x="370" y="460" />
            </Array>
          </mxGeometry>
        </mxCell>
        <mxCell id="cabQjhXbvlF2Ede-UtL3-240" value="" style="edgeStyle=elbowEdgeStyle;elbow=vertical;rounded=0;fontColor=#000000;endArrow=none;endFill=0;strokeWidth=8;strokeColor=#23445D;entryX=0.5;entryY=0;entryDx=0;entryDy=0;exitX=0.5;exitY=1;exitDx=0;exitDy=0;html=1;" parent="1" source="3" target="cabQjhXbvlF2Ede-UtL3-233" edge="1">
          <mxGeometry width="100" height="100" relative="1" as="geometry">
            <mxPoint x="260" y="260" as="sourcePoint" />
            <mxPoint x="340" y="310" as="targetPoint" />
          </mxGeometry>
        </mxCell>
        <mxCell id="yUGHeY6oXwyw55rrvDmv-249" value="Conseguir los materiales necesarios par ael montaje" style="whiteSpace=wrap;rounded=1;fillColor=#fff2cc;strokeColor=#d6b656;shadow=1;fontStyle=0;fontColor=#000000;html=1;" parent="1" vertex="1">
          <mxGeometry x="580" y="550" width="130" height="50" as="geometry" />
        </mxCell>
        <mxCell id="yUGHeY6oXwyw55rrvDmv-250" value="" style="edgeStyle=elbowEdgeStyle;elbow=horizontal;rounded=0;fontColor=#000000;endArrow=none;endFill=0;strokeWidth=8;strokeColor=#23445D;exitX=0;exitY=0.5;exitDx=0;exitDy=0;html=1;" parent="1" source="43" target="yUGHeY6oXwyw55rrvDmv-249" edge="1">
          <mxGeometry width="100" height="100" relative="1" as="geometry">
            <mxPoint x="589.9999999999995" y="350" as="sourcePoint" />
            <mxPoint x="569.9999999999998" y="590" as="targetPoint" />
            <Array as="points">
              <mxPoint x="560" y="500" />
            </Array>
          </mxGeometry>
        </mxCell>
        <mxCell id="yUGHeY6oXwyw55rrvDmv-253" value="Realizar el algoritmo de interpretación." style="whiteSpace=wrap;rounded=1;fillColor=#D4D471;strokeColor=#36393d;shadow=1;fontColor=#000000;fontStyle=1;html=1;" parent="1" vertex="1">
          <mxGeometry x="929.9999999999998" y="300.0000000000001" width="120" height="60" as="geometry" />
        </mxCell>
        <mxCell id="yUGHeY6oXwyw55rrvDmv-254" value="Hacer un porcesamiento de la imágene para segmentar la pupíla." style="whiteSpace=wrap;rounded=1;fillColor=#fff2cc;strokeColor=#d6b656;shadow=1;fontStyle=0;fontColor=#000000;html=1;" parent="1" vertex="1">
          <mxGeometry x="929.9999999999993" y="400.0000000000001" width="120" height="60" as="geometry" />
        </mxCell>
        <mxCell id="yUGHeY6oXwyw55rrvDmv-255" value="Calcular el area de la pupila" style="whiteSpace=wrap;rounded=1;fillColor=#fff2cc;strokeColor=#d6b656;shadow=1;fontStyle=0;fontColor=#000000;html=1;" parent="1" vertex="1">
          <mxGeometry x="930" y="480" width="140" height="60" as="geometry" />
        </mxCell>
        <mxCell id="yUGHeY6oXwyw55rrvDmv-256" value="Aplicar el algoritmo a un video y recolectar los datos." style="whiteSpace=wrap;rounded=1;fillColor=#fff2cc;strokeColor=#d6b656;shadow=1;fontStyle=0;fontColor=#000000;html=1;" parent="1" vertex="1">
          <mxGeometry x="930" y="560" width="130" height="60" as="geometry" />
        </mxCell>
        <mxCell id="yUGHeY6oXwyw55rrvDmv-257" value="" style="edgeStyle=elbowEdgeStyle;elbow=horizontal;rounded=0;fontColor=#000000;endArrow=none;endFill=0;strokeWidth=8;strokeColor=#23445D;html=1;" parent="1" source="yUGHeY6oXwyw55rrvDmv-253" target="yUGHeY6oXwyw55rrvDmv-254" edge="1">
          <mxGeometry width="100" height="100" relative="1" as="geometry">
            <mxPoint x="900" y="330.00000000000045" as="sourcePoint" />
            <mxPoint x="909.9999999999995" y="430" as="targetPoint" />
            <Array as="points">
              <mxPoint x="910" y="380" />
            </Array>
          </mxGeometry>
        </mxCell>
        <mxCell id="yUGHeY6oXwyw55rrvDmv-258" value="" style="edgeStyle=elbowEdgeStyle;elbow=horizontal;rounded=0;fontColor=#000000;endArrow=none;endFill=0;strokeWidth=8;strokeColor=#23445D;html=1;" parent="1" source="yUGHeY6oXwyw55rrvDmv-253" target="yUGHeY6oXwyw55rrvDmv-255" edge="1">
          <mxGeometry width="100" height="100" relative="1" as="geometry">
            <mxPoint x="910" y="330" as="sourcePoint" />
            <mxPoint x="909.9999999999998" y="510" as="targetPoint" />
            <Array as="points">
              <mxPoint x="910" y="420" />
            </Array>
          </mxGeometry>
        </mxCell>
        <mxCell id="yUGHeY6oXwyw55rrvDmv-259" value="" style="edgeStyle=elbowEdgeStyle;elbow=horizontal;rounded=0;fontColor=#000000;endArrow=none;endFill=0;strokeWidth=8;strokeColor=#23445D;html=1;" parent="1" source="yUGHeY6oXwyw55rrvDmv-253" target="yUGHeY6oXwyw55rrvDmv-256" edge="1">
          <mxGeometry width="100" height="100" relative="1" as="geometry">
            <mxPoint x="910" y="330" as="sourcePoint" />
            <mxPoint x="909.9999999999998" y="590" as="targetPoint" />
            <Array as="points">
              <mxPoint x="910" y="470" />
            </Array>
          </mxGeometry>
        </mxCell>
        <mxCell id="yUGHeY6oXwyw55rrvDmv-260" value="" style="edgeStyle=elbowEdgeStyle;elbow=vertical;rounded=0;fontColor=#000000;endArrow=none;endFill=0;strokeWidth=8;strokeColor=#23445D;entryX=0.5;entryY=0;entryDx=0;entryDy=0;exitX=0.5;exitY=1;exitDx=0;exitDy=0;html=1;" parent="1" source="4" target="yUGHeY6oXwyw55rrvDmv-253" edge="1">
          <mxGeometry width="100" height="100" relative="1" as="geometry">
            <mxPoint x="850" y="240" as="sourcePoint" />
            <mxPoint x="850" y="310" as="targetPoint" />
          </mxGeometry>
        </mxCell>
        <mxCell id="yUGHeY6oXwyw55rrvDmv-261" value="Validar el funcionamiento esperado del algoritmo" style="whiteSpace=wrap;rounded=1;fillColor=#fff2cc;strokeColor=#d6b656;shadow=1;fontStyle=0;fontColor=#000000;html=1;" parent="1" vertex="1">
          <mxGeometry x="930" y="643" width="130" height="47" as="geometry" />
        </mxCell>
        <mxCell id="yUGHeY6oXwyw55rrvDmv-262" value="" style="edgeStyle=elbowEdgeStyle;elbow=horizontal;rounded=0;fontColor=#000000;endArrow=none;endFill=0;strokeWidth=8;strokeColor=#23445D;exitX=0;exitY=0.5;exitDx=0;exitDy=0;html=1;" parent="1" source="yUGHeY6oXwyw55rrvDmv-253" target="yUGHeY6oXwyw55rrvDmv-261" edge="1">
          <mxGeometry width="100" height="100" relative="1" as="geometry">
            <mxPoint x="930" y="413" as="sourcePoint" />
            <mxPoint x="909.9999999999998" y="673" as="targetPoint" />
            <Array as="points">
              <mxPoint x="910" y="553" />
            </Array>
          </mxGeometry>
        </mxCell>
        <mxCell id="yUGHeY6oXwyw55rrvDmv-263" value="" style="edgeStyle=elbowEdgeStyle;elbow=horizontal;rounded=0;fontColor=#000000;endArrow=none;endFill=0;strokeWidth=8;strokeColor=#23445D;entryX=0.5;entryY=0;entryDx=0;entryDy=0;html=1;" parent="1" target="7" edge="1">
          <mxGeometry width="100" height="100" relative="1" as="geometry">
            <mxPoint x="880" y="730" as="sourcePoint" />
            <mxPoint x="879.17" y="870" as="targetPoint" />
            <Array as="points">
              <mxPoint x="230" y="730" />
            </Array>
          </mxGeometry>
        </mxCell>
        <mxCell id="yUGHeY6oXwyw55rrvDmv-264" value="Selección de la población" style="whiteSpace=wrap;rounded=1;fillColor=#CF884A;strokeColor=#C73500;shadow=1;fontColor=#000000;fontStyle=1;html=1;" parent="1" vertex="1">
          <mxGeometry x="684.9999999999998" y="900.0000000000001" width="120" height="60" as="geometry" />
        </mxCell>
        <mxCell id="yUGHeY6oXwyw55rrvDmv-265" value="Determinar las caracteristicas del grupo a investigar" style="whiteSpace=wrap;rounded=1;fillColor=#fad7ac;strokeColor=#b46504;shadow=1;fontStyle=0;fontColor=#000000;html=1;" parent="1" vertex="1">
          <mxGeometry x="684.9999999999998" y="1000" width="120" height="60" as="geometry" />
        </mxCell>
        <mxCell id="yUGHeY6oXwyw55rrvDmv-266" value="Evaluar el efecto de factores como la edad en la selección de los participantes" style="whiteSpace=wrap;rounded=1;fillColor=#fad7ac;strokeColor=#b46504;shadow=1;fontStyle=0;fontColor=#000000;html=1;" parent="1" vertex="1">
          <mxGeometry x="685" y="1080" width="120" height="70" as="geometry" />
        </mxCell>
        <mxCell id="yUGHeY6oXwyw55rrvDmv-267" value="" style="edgeStyle=elbowEdgeStyle;elbow=horizontal;rounded=0;fontColor=#000000;endArrow=none;endFill=0;strokeWidth=8;strokeColor=#23445D;html=1;" parent="1" source="yUGHeY6oXwyw55rrvDmv-264" target="yUGHeY6oXwyw55rrvDmv-265" edge="1">
          <mxGeometry width="100" height="100" relative="1" as="geometry">
            <mxPoint x="665" y="930.0000000000005" as="sourcePoint" />
            <mxPoint x="674.9999999999995" y="1030" as="targetPoint" />
            <Array as="points">
              <mxPoint x="665" y="980" />
            </Array>
          </mxGeometry>
        </mxCell>
        <mxCell id="yUGHeY6oXwyw55rrvDmv-268" value="" style="edgeStyle=elbowEdgeStyle;elbow=horizontal;rounded=0;fontColor=#000000;endArrow=none;endFill=0;strokeWidth=8;strokeColor=#23445D;html=1;exitX=0;exitY=0.5;exitDx=0;exitDy=0;" parent="1" source="yUGHeY6oXwyw55rrvDmv-264" target="yUGHeY6oXwyw55rrvDmv-266" edge="1">
          <mxGeometry width="100" height="100" relative="1" as="geometry">
            <mxPoint x="675" y="930" as="sourcePoint" />
            <mxPoint x="674.9999999999998" y="1110" as="targetPoint" />
            <Array as="points">
              <mxPoint x="665" y="1020" />
            </Array>
          </mxGeometry>
        </mxCell>
        <mxCell id="yUGHeY6oXwyw55rrvDmv-269" value="" style="edgeStyle=elbowEdgeStyle;elbow=vertical;rounded=0;fontColor=#000000;endArrow=none;endFill=0;strokeWidth=8;strokeColor=#23445D;entryX=0.5;entryY=0;entryDx=0;entryDy=0;exitX=0.5;exitY=1;exitDx=0;exitDy=0;html=1;" parent="1" source="6" target="yUGHeY6oXwyw55rrvDmv-264" edge="1">
          <mxGeometry width="100" height="100" relative="1" as="geometry">
            <mxPoint x="740" y="840" as="sourcePoint" />
            <mxPoint x="590" y="910" as="targetPoint" />
          </mxGeometry>
        </mxCell>
        <mxCell id="yUGHeY6oXwyw55rrvDmv-270" value="Preparación y entrenamiento." style="whiteSpace=wrap;rounded=1;fillColor=#CF884A;strokeColor=#C73500;shadow=1;fontColor=#000000;fontStyle=1;html=1;" parent="1" vertex="1">
          <mxGeometry x="839.9999999999998" y="900.0000000000001" width="120" height="60" as="geometry" />
        </mxCell>
        <mxCell id="yUGHeY6oXwyw55rrvDmv-271" value="Disminuir el sesgo de medición selecionando individuos aleatoriamente." style="whiteSpace=wrap;rounded=1;fillColor=#fad7ac;strokeColor=#b46504;shadow=1;fontStyle=0;fontColor=#000000;html=1;" parent="1" vertex="1">
          <mxGeometry x="840" y="995" width="120" height="80" as="geometry" />
        </mxCell>
        <mxCell id="yUGHeY6oXwyw55rrvDmv-273" value="" style="edgeStyle=elbowEdgeStyle;elbow=horizontal;rounded=0;fontColor=#000000;endArrow=none;endFill=0;strokeWidth=8;strokeColor=#23445D;html=1;" parent="1" source="yUGHeY6oXwyw55rrvDmv-270" target="yUGHeY6oXwyw55rrvDmv-271" edge="1">
          <mxGeometry width="100" height="100" relative="1" as="geometry">
            <mxPoint x="820" y="930.0000000000005" as="sourcePoint" />
            <mxPoint x="829.9999999999995" y="1030" as="targetPoint" />
            <Array as="points">
              <mxPoint x="820" y="980" />
            </Array>
          </mxGeometry>
        </mxCell>
        <mxCell id="yUGHeY6oXwyw55rrvDmv-275" value="Obtención de los datos" style="whiteSpace=wrap;rounded=1;fillColor=#CF884A;strokeColor=#C73500;shadow=1;fontColor=#000000;fontStyle=1;html=1;" parent="1" vertex="1">
          <mxGeometry x="999.9999999999998" y="900.0000000000001" width="120" height="60" as="geometry" />
        </mxCell>
        <mxCell id="yUGHeY6oXwyw55rrvDmv-276" value="Realizar el experimento con los individuos." style="whiteSpace=wrap;rounded=1;fillColor=#fad7ac;strokeColor=#b46504;shadow=1;fontStyle=0;fontColor=#000000;html=1;" parent="1" vertex="1">
          <mxGeometry x="999.9999999999998" y="1000" width="120" height="60" as="geometry" />
        </mxCell>
        <mxCell id="yUGHeY6oXwyw55rrvDmv-278" value="" style="edgeStyle=elbowEdgeStyle;elbow=horizontal;rounded=0;fontColor=#000000;endArrow=none;endFill=0;strokeWidth=8;strokeColor=#23445D;html=1;" parent="1" source="yUGHeY6oXwyw55rrvDmv-275" target="yUGHeY6oXwyw55rrvDmv-276" edge="1">
          <mxGeometry width="100" height="100" relative="1" as="geometry">
            <mxPoint x="980" y="930.0000000000005" as="sourcePoint" />
            <mxPoint x="989.9999999999995" y="1030" as="targetPoint" />
            <Array as="points">
              <mxPoint x="980" y="980" />
            </Array>
          </mxGeometry>
        </mxCell>
        <mxCell id="yUGHeY6oXwyw55rrvDmv-280" value="" style="edgeStyle=elbowEdgeStyle;elbow=vertical;rounded=0;fontColor=#000000;endArrow=none;endFill=0;strokeWidth=8;strokeColor=#23445D;entryX=0.5;entryY=0;entryDx=0;entryDy=0;exitX=0.5;exitY=1;exitDx=0;exitDy=0;html=1;" parent="1" source="6" target="yUGHeY6oXwyw55rrvDmv-270" edge="1">
          <mxGeometry width="100" height="100" relative="1" as="geometry">
            <mxPoint x="755" y="840" as="sourcePoint" />
            <mxPoint x="755" y="910" as="targetPoint" />
          </mxGeometry>
        </mxCell>
        <mxCell id="yUGHeY6oXwyw55rrvDmv-281" value="" style="edgeStyle=elbowEdgeStyle;elbow=vertical;rounded=0;fontColor=#000000;endArrow=none;endFill=0;strokeWidth=8;strokeColor=#23445D;entryX=0.5;entryY=0;entryDx=0;entryDy=0;html=1;exitX=0.5;exitY=1;exitDx=0;exitDy=0;" parent="1" source="6" target="yUGHeY6oXwyw55rrvDmv-275" edge="1">
          <mxGeometry width="100" height="100" relative="1" as="geometry">
            <mxPoint x="720" y="830" as="sourcePoint" />
            <mxPoint x="920" y="910" as="targetPoint" />
          </mxGeometry>
        </mxCell>
        <mxCell id="yUGHeY6oXwyw55rrvDmv-294" value="Concluir" style="whiteSpace=wrap;rounded=1;fillColor=#CC0000;strokeColor=#B20000;shadow=1;fontColor=#ffffff;fontStyle=1;html=1;" parent="1" vertex="1">
          <mxGeometry x="360" y="890.0000000000002" width="120" height="60" as="geometry" />
        </mxCell>
        <mxCell id="yUGHeY6oXwyw55rrvDmv-295" value="Discutir los resultados encontrados sobre la pupíla." style="whiteSpace=wrap;rounded=1;fillColor=#ffcccc;strokeColor=#36393d;shadow=1;fontStyle=0;fontColor=#000000;html=1;" parent="1" vertex="1">
          <mxGeometry x="360" y="1080" width="130" height="70" as="geometry" />
        </mxCell>
        <mxCell id="yUGHeY6oXwyw55rrvDmv-296" value="Generar visualizaciones de los resultados." style="whiteSpace=wrap;rounded=1;fillColor=#ffcccc;strokeColor=#36393d;shadow=1;fontStyle=0;fontColor=#000000;html=1;" parent="1" vertex="1">
          <mxGeometry x="370" y="990" width="110" height="70" as="geometry" />
        </mxCell>
        <mxCell id="yUGHeY6oXwyw55rrvDmv-297" value="Reportar los resultados." style="whiteSpace=wrap;rounded=1;fillColor=#ffcccc;strokeColor=#36393d;shadow=1;fontStyle=0;fontColor=#000000;html=1;" parent="1" vertex="1">
          <mxGeometry x="364.99999999999955" y="1171.0000000000002" width="120" height="60" as="geometry" />
        </mxCell>
        <mxCell id="yUGHeY6oXwyw55rrvDmv-300" value="" style="edgeStyle=elbowEdgeStyle;elbow=horizontal;rounded=0;fontColor=#000000;endArrow=none;endFill=0;strokeWidth=8;strokeColor=#23445D;html=1;" parent="1" source="yUGHeY6oXwyw55rrvDmv-294" target="yUGHeY6oXwyw55rrvDmv-295" edge="1">
          <mxGeometry width="100" height="100" relative="1" as="geometry">
            <mxPoint x="330" y="930.0000000000005" as="sourcePoint" />
            <mxPoint x="339.99999999999955" y="1030" as="targetPoint" />
            <Array as="points">
              <mxPoint x="340" y="980" />
            </Array>
          </mxGeometry>
        </mxCell>
        <mxCell id="yUGHeY6oXwyw55rrvDmv-301" value="" style="edgeStyle=elbowEdgeStyle;elbow=horizontal;rounded=0;fontColor=#000000;endArrow=none;endFill=0;strokeWidth=8;strokeColor=#23445D;html=1;" parent="1" source="yUGHeY6oXwyw55rrvDmv-294" target="yUGHeY6oXwyw55rrvDmv-296" edge="1">
          <mxGeometry width="100" height="100" relative="1" as="geometry">
            <mxPoint x="340" y="930" as="sourcePoint" />
            <mxPoint x="340" y="1110" as="targetPoint" />
            <Array as="points">
              <mxPoint x="340" y="1020" />
            </Array>
          </mxGeometry>
        </mxCell>
        <mxCell id="yUGHeY6oXwyw55rrvDmv-304" value="" style="edgeStyle=elbowEdgeStyle;elbow=horizontal;rounded=0;fontColor=#000000;endArrow=none;endFill=0;strokeWidth=8;strokeColor=#23445D;html=1;" parent="1" source="yUGHeY6oXwyw55rrvDmv-294" target="yUGHeY6oXwyw55rrvDmv-297" edge="1">
          <mxGeometry width="100" height="100" relative="1" as="geometry">
            <mxPoint x="340" y="930" as="sourcePoint" />
            <mxPoint x="340" y="1190" as="targetPoint" />
            <Array as="points">
              <mxPoint x="340" y="1070" />
            </Array>
          </mxGeometry>
        </mxCell>
        <mxCell id="yUGHeY6oXwyw55rrvDmv-305" value="" style="edgeStyle=elbowEdgeStyle;elbow=vertical;rounded=0;fontColor=#000000;endArrow=none;endFill=0;strokeWidth=8;strokeColor=#23445D;html=1;" parent="1" edge="1">
          <mxGeometry width="100" height="100" relative="1" as="geometry">
            <mxPoint x="230" y="820" as="sourcePoint" />
            <mxPoint x="280" y="890" as="targetPoint" />
          </mxGeometry>
        </mxCell>
        <mxCell id="yUGHeY6oXwyw55rrvDmv-306" value="" style="edgeStyle=elbowEdgeStyle;elbow=vertical;rounded=0;fontColor=#000000;endArrow=none;endFill=0;strokeWidth=8;strokeColor=#23445D;entryX=0.5;entryY=0;entryDx=0;entryDy=0;exitX=0.5;exitY=1;exitDx=0;exitDy=0;html=1;" parent="1" source="7" target="yUGHeY6oXwyw55rrvDmv-294" edge="1">
          <mxGeometry width="100" height="100" relative="1" as="geometry">
            <mxPoint x="240" y="830" as="sourcePoint" />
            <mxPoint x="290" y="900" as="targetPoint" />
          </mxGeometry>
        </mxCell>
        <mxCell id="yUGHeY6oXwyw55rrvDmv-312" value="Instruir adecuadamente a los participantes del experimento." style="whiteSpace=wrap;rounded=1;fillColor=#fad7ac;strokeColor=#b46504;shadow=1;fontStyle=0;fontColor=#000000;html=1;" parent="1" vertex="1">
          <mxGeometry x="840" y="1090" width="120" height="60" as="geometry" />
        </mxCell>
        <mxCell id="yUGHeY6oXwyw55rrvDmv-313" value="" style="edgeStyle=elbowEdgeStyle;elbow=horizontal;rounded=0;fontColor=#000000;endArrow=none;endFill=0;strokeWidth=8;strokeColor=#23445D;html=1;exitX=0;exitY=0.5;exitDx=0;exitDy=0;entryX=0;entryY=0.5;entryDx=0;entryDy=0;" parent="1" source="yUGHeY6oXwyw55rrvDmv-270" target="yUGHeY6oXwyw55rrvDmv-312" edge="1">
          <mxGeometry width="100" height="100" relative="1" as="geometry">
            <mxPoint x="830" y="935" as="sourcePoint" />
            <mxPoint x="850" y="1125" as="targetPoint" />
            <Array as="points">
              <mxPoint x="820" y="995" />
            </Array>
          </mxGeometry>
        </mxCell>
        <mxCell id="MB5agvpYDD_RY6ioqbZ7-233" value="EVALUAR LA POSIBILIDAD DE INCLUIR LOS REFLEJOS DE PURKINJE" style="whiteSpace=wrap;rounded=1;fillColor=#008a00;strokeColor=#005700;shadow=1;fontColor=#ffffff;fontStyle=1;fontSize=14;html=1;" vertex="1" parent="1">
          <mxGeometry x="750" y="1350" width="180" height="80" as="geometry" />
        </mxCell>
        <mxCell id="MB5agvpYDD_RY6ioqbZ7-234" value="REALIZAR UN ESTUDIO CON LOS LENTES&amp;nbsp;Optotune EL-16-40-TC" style="whiteSpace=wrap;rounded=1;fillColor=#0050ef;strokeColor=#001DBC;shadow=1;fontColor=#ffffff;fontStyle=1;fontSize=14;html=1;" vertex="1" parent="1">
          <mxGeometry x="160" y="1340" width="160" height="80" as="geometry" />
        </mxCell>
        <mxCell id="MB5agvpYDD_RY6ioqbZ7-238" value="Plantear un Montaje Experimental" style="whiteSpace=wrap;rounded=1;fillColor=#1ba1e2;strokeColor=#006EAF;shadow=1;fontColor=#ffffff;fontStyle=1;html=1;" vertex="1" parent="1">
          <mxGeometry x="34.99999999999977" y="1490.0000000000002" width="120" height="60" as="geometry" />
        </mxCell>
        <mxCell id="MB5agvpYDD_RY6ioqbZ7-239" value="Seleccionar la Población" style="whiteSpace=wrap;rounded=1;fillColor=#1ba1e2;strokeColor=#006EAF;shadow=1;fontColor=#ffffff;fontStyle=1;html=1;" vertex="1" parent="1">
          <mxGeometry x="195" y="1490.0000000000002" width="120" height="60" as="geometry" />
        </mxCell>
        <mxCell id="MB5agvpYDD_RY6ioqbZ7-240" value="Plantear una pregunta de investigación" style="whiteSpace=wrap;rounded=1;fillColor=#647687;strokeColor=#314354;shadow=1;fontStyle=0;fontColor=#ffffff;html=1;" vertex="1" parent="1">
          <mxGeometry x="35" y="1590" width="120" height="60" as="geometry" />
        </mxCell>
        <mxCell id="MB5agvpYDD_RY6ioqbZ7-241" value="Diseñar un montaje experimental" style="whiteSpace=wrap;rounded=1;fillColor=#647687;strokeColor=#314354;shadow=1;fontStyle=0;fontColor=#ffffff;html=1;" vertex="1" parent="1">
          <mxGeometry x="35" y="1670.0000000000002" width="120" height="60" as="geometry" />
        </mxCell>
        <mxCell id="MB5agvpYDD_RY6ioqbZ7-242" value="Diseñar un experimento" style="whiteSpace=wrap;rounded=1;fillColor=#647687;strokeColor=#314354;shadow=1;fontStyle=0;fontColor=#ffffff;html=1;" vertex="1" parent="1">
          <mxGeometry x="34.99999999999977" y="1750.0000000000002" width="120" height="60" as="geometry" />
        </mxCell>
        <mxCell id="MB5agvpYDD_RY6ioqbZ7-243" value="Determinar las caracteristicas de las muestras poblacionales." style="whiteSpace=wrap;rounded=1;fillColor=#647687;strokeColor=#314354;shadow=1;fontStyle=0;fontColor=#ffffff;html=1;" vertex="1" parent="1">
          <mxGeometry x="194.9999999999991" y="1590.0000000000002" width="120" height="60" as="geometry" />
        </mxCell>
        <mxCell id="MB5agvpYDD_RY6ioqbZ7-244" value="Realizar un Concentimiento Informado y presentarlo al comité de Ética de la Universidad." style="whiteSpace=wrap;rounded=1;fillColor=#647687;strokeColor=#314354;shadow=1;fontStyle=0;fontColor=#ffffff;html=1;" vertex="1" parent="1">
          <mxGeometry x="195" y="1670" width="125" height="90" as="geometry" />
        </mxCell>
        <mxCell id="MB5agvpYDD_RY6ioqbZ7-245" value="Dar las instrucciones y realizar el entrenamiento necesario con los individuos." style="whiteSpace=wrap;rounded=1;fillColor=#647687;strokeColor=#314354;shadow=1;fontStyle=0;fontColor=#ffffff;html=1;" vertex="1" parent="1">
          <mxGeometry x="195" y="1771" width="120" height="79" as="geometry" />
        </mxCell>
        <mxCell id="MB5agvpYDD_RY6ioqbZ7-246" value="" style="edgeStyle=elbowEdgeStyle;elbow=horizontal;rounded=0;fontColor=#000000;endArrow=none;endFill=0;strokeWidth=8;strokeColor=#23445D;html=1;" edge="1" parent="1" source="MB5agvpYDD_RY6ioqbZ7-238" target="MB5agvpYDD_RY6ioqbZ7-240">
          <mxGeometry width="100" height="100" relative="1" as="geometry">
            <mxPoint x="15" y="1520.0000000000005" as="sourcePoint" />
            <mxPoint x="24.999999999999545" y="1620" as="targetPoint" />
            <Array as="points">
              <mxPoint x="15" y="1570" />
            </Array>
          </mxGeometry>
        </mxCell>
        <mxCell id="MB5agvpYDD_RY6ioqbZ7-247" value="" style="edgeStyle=elbowEdgeStyle;elbow=horizontal;rounded=0;fontColor=#000000;endArrow=none;endFill=0;strokeWidth=8;strokeColor=#23445D;html=1;" edge="1" parent="1" source="MB5agvpYDD_RY6ioqbZ7-238" target="MB5agvpYDD_RY6ioqbZ7-241">
          <mxGeometry width="100" height="100" relative="1" as="geometry">
            <mxPoint x="25" y="1520" as="sourcePoint" />
            <mxPoint x="24.999999999999773" y="1700" as="targetPoint" />
            <Array as="points">
              <mxPoint x="15" y="1610" />
            </Array>
          </mxGeometry>
        </mxCell>
        <mxCell id="MB5agvpYDD_RY6ioqbZ7-248" value="" style="edgeStyle=elbowEdgeStyle;elbow=horizontal;rounded=0;fontColor=#000000;endArrow=none;endFill=0;strokeWidth=8;strokeColor=#23445D;html=1;" edge="1" parent="1" source="MB5agvpYDD_RY6ioqbZ7-238" target="MB5agvpYDD_RY6ioqbZ7-242">
          <mxGeometry width="100" height="100" relative="1" as="geometry">
            <mxPoint x="25" y="1520" as="sourcePoint" />
            <mxPoint x="24.999999999999773" y="1780" as="targetPoint" />
            <Array as="points">
              <mxPoint x="15" y="1660" />
            </Array>
          </mxGeometry>
        </mxCell>
        <mxCell id="MB5agvpYDD_RY6ioqbZ7-249" value="" style="edgeStyle=elbowEdgeStyle;elbow=horizontal;rounded=0;fontColor=#000000;endArrow=none;endFill=0;strokeWidth=8;strokeColor=#23445D;html=1;" edge="1" parent="1" source="MB5agvpYDD_RY6ioqbZ7-239" target="MB5agvpYDD_RY6ioqbZ7-243">
          <mxGeometry width="100" height="100" relative="1" as="geometry">
            <mxPoint x="165" y="1520.0000000000005" as="sourcePoint" />
            <mxPoint x="174.99999999999955" y="1620" as="targetPoint" />
            <Array as="points">
              <mxPoint x="175" y="1570" />
            </Array>
          </mxGeometry>
        </mxCell>
        <mxCell id="MB5agvpYDD_RY6ioqbZ7-250" value="" style="edgeStyle=elbowEdgeStyle;elbow=horizontal;rounded=0;fontColor=#000000;endArrow=none;endFill=0;strokeWidth=8;strokeColor=#23445D;html=1;" edge="1" parent="1" source="MB5agvpYDD_RY6ioqbZ7-239" target="MB5agvpYDD_RY6ioqbZ7-244">
          <mxGeometry width="100" height="100" relative="1" as="geometry">
            <mxPoint x="175" y="1520" as="sourcePoint" />
            <mxPoint x="175" y="1700" as="targetPoint" />
            <Array as="points">
              <mxPoint x="175" y="1610" />
            </Array>
          </mxGeometry>
        </mxCell>
        <mxCell id="MB5agvpYDD_RY6ioqbZ7-251" value="" style="edgeStyle=elbowEdgeStyle;elbow=horizontal;rounded=0;fontColor=#000000;endArrow=none;endFill=0;strokeWidth=8;strokeColor=#23445D;html=1;" edge="1" parent="1" source="MB5agvpYDD_RY6ioqbZ7-239" target="MB5agvpYDD_RY6ioqbZ7-245">
          <mxGeometry width="100" height="100" relative="1" as="geometry">
            <mxPoint x="175" y="1520" as="sourcePoint" />
            <mxPoint x="175" y="1780" as="targetPoint" />
            <Array as="points">
              <mxPoint x="175" y="1660" />
            </Array>
          </mxGeometry>
        </mxCell>
        <mxCell id="MB5agvpYDD_RY6ioqbZ7-253" value="" style="edgeStyle=elbowEdgeStyle;elbow=vertical;rounded=0;fontColor=#000000;endArrow=none;endFill=0;strokeWidth=8;strokeColor=#23445D;html=1;" edge="1" parent="1" target="MB5agvpYDD_RY6ioqbZ7-238">
          <mxGeometry width="100" height="100" relative="1" as="geometry">
            <mxPoint x="225" y="1420" as="sourcePoint" />
            <mxPoint x="115" y="1380" as="targetPoint" />
          </mxGeometry>
        </mxCell>
        <mxCell id="MB5agvpYDD_RY6ioqbZ7-254" value="" style="edgeStyle=elbowEdgeStyle;elbow=vertical;rounded=0;fontColor=#000000;endArrow=none;endFill=0;strokeWidth=8;strokeColor=#23445D;entryX=0.5;entryY=0;entryDx=0;entryDy=0;html=1;" edge="1" parent="1" target="MB5agvpYDD_RY6ioqbZ7-233">
          <mxGeometry width="100" height="100" relative="1" as="geometry">
            <mxPoint x="1140" y="610" as="sourcePoint" />
            <mxPoint x="260" y="1360" as="targetPoint" />
            <Array as="points">
              <mxPoint x="1150" y="1330" />
            </Array>
          </mxGeometry>
        </mxCell>
        <mxCell id="MB5agvpYDD_RY6ioqbZ7-256" value="" style="edgeStyle=elbowEdgeStyle;elbow=horizontal;rounded=0;fontColor=#000000;endArrow=none;endFill=0;strokeWidth=8;strokeColor=#23445D;entryX=0.5;entryY=0;entryDx=0;entryDy=0;html=1;" edge="1" parent="1" target="MB5agvpYDD_RY6ioqbZ7-234">
          <mxGeometry width="100" height="100" relative="1" as="geometry">
            <mxPoint x="890" y="1330" as="sourcePoint" />
            <mxPoint x="889.17" y="1470" as="targetPoint" />
            <Array as="points">
              <mxPoint x="240" y="1330" />
            </Array>
          </mxGeometry>
        </mxCell>
        <mxCell id="MB5agvpYDD_RY6ioqbZ7-257" value="Conseguir los implenentos" style="whiteSpace=wrap;rounded=1;fillColor=#6d8764;strokeColor=#3A5431;shadow=1;fontColor=#ffffff;fontStyle=1;html=1;" vertex="1" parent="1">
          <mxGeometry x="694.9999999999998" y="1500" width="120" height="60" as="geometry" />
        </mxCell>
        <mxCell id="MB5agvpYDD_RY6ioqbZ7-258" value="Adquirir una camara con vision infrarroja." style="whiteSpace=wrap;rounded=1;fillColor=#B9E0A5;strokeColor=#B9E0A5;shadow=1;fontStyle=0;html=1;fontColor=#000000;" vertex="1" parent="1">
          <mxGeometry x="694.9999999999998" y="1600" width="120" height="60" as="geometry" />
        </mxCell>
        <mxCell id="MB5agvpYDD_RY6ioqbZ7-259" value="Adquirir una luz infrarrojan." style="whiteSpace=wrap;rounded=1;fillColor=#B9E0A5;strokeColor=#B9E0A5;shadow=1;fontStyle=0;html=1;fontColor=#000000;" vertex="1" parent="1">
          <mxGeometry x="695" y="1680" width="120" height="60" as="geometry" />
        </mxCell>
        <mxCell id="MB5agvpYDD_RY6ioqbZ7-260" value="" style="edgeStyle=elbowEdgeStyle;elbow=horizontal;rounded=0;fontColor=#000000;endArrow=none;endFill=0;strokeWidth=8;strokeColor=#23445D;html=1;" edge="1" parent="1" source="MB5agvpYDD_RY6ioqbZ7-257" target="MB5agvpYDD_RY6ioqbZ7-258">
          <mxGeometry width="100" height="100" relative="1" as="geometry">
            <mxPoint x="675" y="1530.0000000000005" as="sourcePoint" />
            <mxPoint x="684.9999999999995" y="1630" as="targetPoint" />
            <Array as="points">
              <mxPoint x="675" y="1580" />
            </Array>
          </mxGeometry>
        </mxCell>
        <mxCell id="MB5agvpYDD_RY6ioqbZ7-261" value="" style="edgeStyle=elbowEdgeStyle;elbow=horizontal;rounded=0;fontColor=#000000;endArrow=none;endFill=0;strokeWidth=8;strokeColor=#23445D;html=1;exitX=0;exitY=0.5;exitDx=0;exitDy=0;" edge="1" parent="1" source="MB5agvpYDD_RY6ioqbZ7-257" target="MB5agvpYDD_RY6ioqbZ7-259">
          <mxGeometry width="100" height="100" relative="1" as="geometry">
            <mxPoint x="685" y="1530" as="sourcePoint" />
            <mxPoint x="684.9999999999998" y="1710" as="targetPoint" />
            <Array as="points">
              <mxPoint x="675" y="1620" />
            </Array>
          </mxGeometry>
        </mxCell>
        <mxCell id="MB5agvpYDD_RY6ioqbZ7-262" value="" style="edgeStyle=elbowEdgeStyle;elbow=vertical;rounded=0;fontColor=#000000;endArrow=none;endFill=0;strokeWidth=8;strokeColor=#23445D;entryX=0.5;entryY=0;entryDx=0;entryDy=0;exitX=0.5;exitY=1;exitDx=0;exitDy=0;html=1;" edge="1" parent="1" source="MB5agvpYDD_RY6ioqbZ7-233" target="MB5agvpYDD_RY6ioqbZ7-257">
          <mxGeometry width="100" height="100" relative="1" as="geometry">
            <mxPoint x="750" y="1440" as="sourcePoint" />
            <mxPoint x="600" y="1510" as="targetPoint" />
          </mxGeometry>
        </mxCell>
        <mxCell id="MB5agvpYDD_RY6ioqbZ7-263" value="Realizar el mecanismo de medición" style="whiteSpace=wrap;rounded=1;fillColor=#6d8764;strokeColor=#3A5431;shadow=1;fontColor=#ffffff;fontStyle=1;html=1;" vertex="1" parent="1">
          <mxGeometry x="849.9999999999998" y="1500" width="120" height="60" as="geometry" />
        </mxCell>
        <mxCell id="MB5agvpYDD_RY6ioqbZ7-264" value="Determinar los parametros del sistema de medición" style="whiteSpace=wrap;rounded=1;fillColor=#B9E0A5;strokeColor=#B9E0A5;shadow=1;fontStyle=0;html=1;fontColor=#000000;" vertex="1" parent="1">
          <mxGeometry x="849.9999999999998" y="1600" width="120" height="60" as="geometry" />
        </mxCell>
        <mxCell id="MB5agvpYDD_RY6ioqbZ7-265" value="" style="edgeStyle=elbowEdgeStyle;elbow=horizontal;rounded=0;fontColor=#000000;endArrow=none;endFill=0;strokeWidth=8;strokeColor=#23445D;html=1;" edge="1" parent="1" source="MB5agvpYDD_RY6ioqbZ7-263" target="MB5agvpYDD_RY6ioqbZ7-264">
          <mxGeometry width="100" height="100" relative="1" as="geometry">
            <mxPoint x="830" y="1530.0000000000005" as="sourcePoint" />
            <mxPoint x="839.9999999999995" y="1630" as="targetPoint" />
            <Array as="points">
              <mxPoint x="830" y="1580" />
            </Array>
          </mxGeometry>
        </mxCell>
        <mxCell id="MB5agvpYDD_RY6ioqbZ7-266" value="Realizar un algoritmo de interpretación" style="whiteSpace=wrap;rounded=1;fillColor=#6d8764;strokeColor=#3A5431;shadow=1;fontColor=#ffffff;fontStyle=1;html=1;" vertex="1" parent="1">
          <mxGeometry x="1009.9999999999998" y="1500" width="120" height="60" as="geometry" />
        </mxCell>
        <mxCell id="MB5agvpYDD_RY6ioqbZ7-267" value="Determinar los reflejos de Purkinje a utilizar." style="whiteSpace=wrap;rounded=1;fillColor=#B9E0A5;strokeColor=#B9E0A5;shadow=1;fontStyle=0;html=1;fontColor=#000000;" vertex="1" parent="1">
          <mxGeometry x="1009.9999999999998" y="1600" width="120" height="60" as="geometry" />
        </mxCell>
        <mxCell id="MB5agvpYDD_RY6ioqbZ7-268" value="" style="edgeStyle=elbowEdgeStyle;elbow=horizontal;rounded=0;fontColor=#000000;endArrow=none;endFill=0;strokeWidth=8;strokeColor=#23445D;html=1;" edge="1" parent="1" source="MB5agvpYDD_RY6ioqbZ7-266" target="MB5agvpYDD_RY6ioqbZ7-267">
          <mxGeometry width="100" height="100" relative="1" as="geometry">
            <mxPoint x="990" y="1530.0000000000005" as="sourcePoint" />
            <mxPoint x="999.9999999999995" y="1630" as="targetPoint" />
            <Array as="points">
              <mxPoint x="990" y="1580" />
            </Array>
          </mxGeometry>
        </mxCell>
        <mxCell id="MB5agvpYDD_RY6ioqbZ7-269" value="" style="edgeStyle=elbowEdgeStyle;elbow=vertical;rounded=0;fontColor=#000000;endArrow=none;endFill=0;strokeWidth=8;strokeColor=#23445D;entryX=0.5;entryY=0;entryDx=0;entryDy=0;exitX=0.5;exitY=1;exitDx=0;exitDy=0;html=1;" edge="1" parent="1" source="MB5agvpYDD_RY6ioqbZ7-233" target="MB5agvpYDD_RY6ioqbZ7-263">
          <mxGeometry width="100" height="100" relative="1" as="geometry">
            <mxPoint x="765" y="1440" as="sourcePoint" />
            <mxPoint x="765" y="1510" as="targetPoint" />
          </mxGeometry>
        </mxCell>
        <mxCell id="MB5agvpYDD_RY6ioqbZ7-270" value="" style="edgeStyle=elbowEdgeStyle;elbow=vertical;rounded=0;fontColor=#000000;endArrow=none;endFill=0;strokeWidth=8;strokeColor=#23445D;entryX=0.5;entryY=0;entryDx=0;entryDy=0;html=1;exitX=0.5;exitY=1;exitDx=0;exitDy=0;" edge="1" parent="1" source="MB5agvpYDD_RY6ioqbZ7-233" target="MB5agvpYDD_RY6ioqbZ7-266">
          <mxGeometry width="100" height="100" relative="1" as="geometry">
            <mxPoint x="730" y="1430" as="sourcePoint" />
            <mxPoint x="930" y="1510" as="targetPoint" />
          </mxGeometry>
        </mxCell>
        <mxCell id="MB5agvpYDD_RY6ioqbZ7-271" value="Realizar el procedimiento Experimental" style="whiteSpace=wrap;rounded=1;fillColor=#1ba1e2;strokeColor=#006EAF;shadow=1;fontColor=#ffffff;fontStyle=1;html=1;" vertex="1" parent="1">
          <mxGeometry x="355" y="1490.0000000000002" width="120" height="60" as="geometry" />
        </mxCell>
        <mxCell id="MB5agvpYDD_RY6ioqbZ7-272" value="Realizar la prueba experimental&amp;nbsp;" style="whiteSpace=wrap;rounded=1;fillColor=#647687;strokeColor=#314354;shadow=1;fontStyle=0;fontColor=#ffffff;html=1;" vertex="1" parent="1">
          <mxGeometry x="355" y="1680" width="130" height="70" as="geometry" />
        </mxCell>
        <mxCell id="MB5agvpYDD_RY6ioqbZ7-273" value="Seleccionar el individuo a evaluar de forma aleatoria." style="whiteSpace=wrap;rounded=1;fillColor=#647687;strokeColor=#314354;shadow=1;fontStyle=0;fontColor=#ffffff;html=1;" vertex="1" parent="1">
          <mxGeometry x="365" y="1590" width="110" height="70" as="geometry" />
        </mxCell>
        <mxCell id="MB5agvpYDD_RY6ioqbZ7-274" value="Recolectar adecuadamente los datos de control." style="whiteSpace=wrap;rounded=1;fillColor=#647687;strokeColor=#314354;shadow=1;fontStyle=0;fontColor=#ffffff;html=1;" vertex="1" parent="1">
          <mxGeometry x="359.99999999999955" y="1771.0000000000002" width="120" height="60" as="geometry" />
        </mxCell>
        <mxCell id="MB5agvpYDD_RY6ioqbZ7-275" value="" style="edgeStyle=elbowEdgeStyle;elbow=horizontal;rounded=0;fontColor=#000000;endArrow=none;endFill=0;strokeWidth=8;strokeColor=#23445D;html=1;" edge="1" parent="1" source="MB5agvpYDD_RY6ioqbZ7-271" target="MB5agvpYDD_RY6ioqbZ7-272">
          <mxGeometry width="100" height="100" relative="1" as="geometry">
            <mxPoint x="325" y="1530.0000000000005" as="sourcePoint" />
            <mxPoint x="334.99999999999955" y="1630" as="targetPoint" />
            <Array as="points">
              <mxPoint x="335" y="1580" />
            </Array>
          </mxGeometry>
        </mxCell>
        <mxCell id="MB5agvpYDD_RY6ioqbZ7-276" value="" style="edgeStyle=elbowEdgeStyle;elbow=horizontal;rounded=0;fontColor=#000000;endArrow=none;endFill=0;strokeWidth=8;strokeColor=#23445D;html=1;" edge="1" parent="1" source="MB5agvpYDD_RY6ioqbZ7-271" target="MB5agvpYDD_RY6ioqbZ7-273">
          <mxGeometry width="100" height="100" relative="1" as="geometry">
            <mxPoint x="335" y="1530" as="sourcePoint" />
            <mxPoint x="335" y="1710" as="targetPoint" />
            <Array as="points">
              <mxPoint x="335" y="1620" />
            </Array>
          </mxGeometry>
        </mxCell>
        <mxCell id="MB5agvpYDD_RY6ioqbZ7-277" value="" style="edgeStyle=elbowEdgeStyle;elbow=horizontal;rounded=0;fontColor=#000000;endArrow=none;endFill=0;strokeWidth=8;strokeColor=#23445D;html=1;" edge="1" parent="1" source="MB5agvpYDD_RY6ioqbZ7-271" target="MB5agvpYDD_RY6ioqbZ7-274">
          <mxGeometry width="100" height="100" relative="1" as="geometry">
            <mxPoint x="335" y="1530" as="sourcePoint" />
            <mxPoint x="335" y="1790" as="targetPoint" />
            <Array as="points">
              <mxPoint x="335" y="1670" />
            </Array>
          </mxGeometry>
        </mxCell>
        <mxCell id="MB5agvpYDD_RY6ioqbZ7-278" value="" style="edgeStyle=elbowEdgeStyle;elbow=vertical;rounded=0;fontColor=#000000;endArrow=none;endFill=0;strokeWidth=8;strokeColor=#23445D;html=1;" edge="1" parent="1">
          <mxGeometry width="100" height="100" relative="1" as="geometry">
            <mxPoint x="225" y="1420" as="sourcePoint" />
            <mxPoint x="275" y="1490" as="targetPoint" />
          </mxGeometry>
        </mxCell>
        <mxCell id="MB5agvpYDD_RY6ioqbZ7-279" value="" style="edgeStyle=elbowEdgeStyle;elbow=vertical;rounded=0;fontColor=#000000;endArrow=none;endFill=0;strokeWidth=8;strokeColor=#23445D;entryX=0.5;entryY=0;entryDx=0;entryDy=0;exitX=0.5;exitY=1;exitDx=0;exitDy=0;html=1;" edge="1" parent="1" target="MB5agvpYDD_RY6ioqbZ7-271">
          <mxGeometry width="100" height="100" relative="1" as="geometry">
            <mxPoint x="225" y="1420" as="sourcePoint" />
            <mxPoint x="285" y="1500" as="targetPoint" />
          </mxGeometry>
        </mxCell>
        <mxCell id="MB5agvpYDD_RY6ioqbZ7-280" value="Montar el mecanismo de medición dentro del montaje experimental." style="whiteSpace=wrap;rounded=1;fillColor=#B9E0A5;strokeColor=#B9E0A5;shadow=1;fontStyle=0;html=1;fontColor=#000000;" vertex="1" parent="1">
          <mxGeometry x="850" y="1685" width="120" height="60" as="geometry" />
        </mxCell>
        <mxCell id="MB5agvpYDD_RY6ioqbZ7-281" value="" style="edgeStyle=elbowEdgeStyle;elbow=horizontal;rounded=0;fontColor=#000000;endArrow=none;endFill=0;strokeWidth=8;strokeColor=#23445D;html=1;exitX=0;exitY=0.5;exitDx=0;exitDy=0;entryX=0;entryY=0.5;entryDx=0;entryDy=0;" edge="1" parent="1" source="MB5agvpYDD_RY6ioqbZ7-263" target="MB5agvpYDD_RY6ioqbZ7-280">
          <mxGeometry width="100" height="100" relative="1" as="geometry">
            <mxPoint x="840" y="1535" as="sourcePoint" />
            <mxPoint x="860" y="1725" as="targetPoint" />
            <Array as="points">
              <mxPoint x="830" y="1595" />
            </Array>
          </mxGeometry>
        </mxCell>
        <mxCell id="MB5agvpYDD_RY6ioqbZ7-282" value="Realizar un concentimiento informado y pasarlo al comité de Etica de la universidad." style="whiteSpace=wrap;rounded=1;fillColor=#fad7ac;strokeColor=#b46504;shadow=1;fontStyle=0;fontColor=#000000;html=1;" vertex="1" parent="1">
          <mxGeometry x="682.5" y="1170" width="145" height="59" as="geometry" />
        </mxCell>
        <mxCell id="MB5agvpYDD_RY6ioqbZ7-283" value="" style="edgeStyle=elbowEdgeStyle;elbow=horizontal;rounded=0;fontColor=#000000;endArrow=none;endFill=0;strokeWidth=8;strokeColor=#23445D;html=1;exitX=0;exitY=0.5;exitDx=0;exitDy=0;entryX=0;entryY=0.5;entryDx=0;entryDy=0;" edge="1" parent="1" target="MB5agvpYDD_RY6ioqbZ7-282">
          <mxGeometry width="100" height="100" relative="1" as="geometry">
            <mxPoint x="685" y="927.5" as="sourcePoint" />
            <mxPoint x="685" y="1112.5" as="targetPoint" />
            <Array as="points">
              <mxPoint x="665" y="1017.5" />
            </Array>
          </mxGeometry>
        </mxCell>
        <mxCell id="MB5agvpYDD_RY6ioqbZ7-284" value="Seleccionar una muestra poblacional" style="whiteSpace=wrap;rounded=1;fillColor=#fad7ac;strokeColor=#b46504;shadow=1;fontStyle=0;fontColor=#000000;html=1;" vertex="1" parent="1">
          <mxGeometry x="685" y="1250" width="115" height="49" as="geometry" />
        </mxCell>
        <mxCell id="MB5agvpYDD_RY6ioqbZ7-285" value="" style="edgeStyle=elbowEdgeStyle;elbow=horizontal;rounded=0;fontColor=#000000;endArrow=none;endFill=0;strokeWidth=8;strokeColor=#23445D;html=1;exitX=0;exitY=0.5;exitDx=0;exitDy=0;entryX=0;entryY=0.5;entryDx=0;entryDy=0;" edge="1" parent="1" source="yUGHeY6oXwyw55rrvDmv-264" target="MB5agvpYDD_RY6ioqbZ7-284">
          <mxGeometry width="100" height="100" relative="1" as="geometry">
            <mxPoint x="685" y="941.5" as="sourcePoint" />
            <mxPoint x="685" y="1210" as="targetPoint" />
            <Array as="points">
              <mxPoint x="665" y="1031.5" />
            </Array>
          </mxGeometry>
        </mxCell>
        <mxCell id="MB5agvpYDD_RY6ioqbZ7-286" value="Capturar el diametro de la pupíla." style="whiteSpace=wrap;rounded=1;fillColor=#fad7ac;strokeColor=#b46504;shadow=1;fontStyle=0;fontColor=#000000;html=1;" vertex="1" parent="1">
          <mxGeometry x="999.9999999999998" y="1090" width="120" height="60" as="geometry" />
        </mxCell>
        <mxCell id="MB5agvpYDD_RY6ioqbZ7-287" value="" style="edgeStyle=elbowEdgeStyle;elbow=horizontal;rounded=0;fontColor=#000000;endArrow=none;endFill=0;strokeWidth=8;strokeColor=#23445D;html=1;exitX=0;exitY=0.5;exitDx=0;exitDy=0;entryX=0;entryY=0.5;entryDx=0;entryDy=0;" edge="1" parent="1">
          <mxGeometry width="100" height="100" relative="1" as="geometry">
            <mxPoint x="998.7499999999998" y="930" as="sourcePoint" />
            <mxPoint x="998.7499999999998" y="1120" as="targetPoint" />
            <Array as="points">
              <mxPoint x="980" y="1020" />
            </Array>
          </mxGeometry>
        </mxCell>
        <mxCell id="MB5agvpYDD_RY6ioqbZ7-288" value="Etiquetar los datos adecaudamente." style="whiteSpace=wrap;rounded=1;fillColor=#fad7ac;strokeColor=#b46504;shadow=1;fontStyle=0;fontColor=#000000;html=1;" vertex="1" parent="1">
          <mxGeometry x="999.9999999999998" y="1171" width="120" height="60" as="geometry" />
        </mxCell>
        <mxCell id="MB5agvpYDD_RY6ioqbZ7-289" value="" style="edgeStyle=elbowEdgeStyle;elbow=horizontal;rounded=0;fontColor=#000000;endArrow=none;endFill=0;strokeWidth=8;strokeColor=#23445D;html=1;exitX=0;exitY=0.5;exitDx=0;exitDy=0;entryX=0;entryY=0.5;entryDx=0;entryDy=0;" edge="1" parent="1" target="MB5agvpYDD_RY6ioqbZ7-288">
          <mxGeometry width="100" height="100" relative="1" as="geometry">
            <mxPoint x="999.3699999999998" y="925" as="sourcePoint" />
            <mxPoint x="999.3699999999998" y="1115" as="targetPoint" />
            <Array as="points">
              <mxPoint x="980.62" y="1015" />
            </Array>
          </mxGeometry>
        </mxCell>
        <mxCell id="MB5agvpYDD_RY6ioqbZ7-290" value="Aplicar el algoritmo para calcular el diametro de la pupíla." style="whiteSpace=wrap;rounded=1;fillColor=#ffcccc;strokeColor=#36393d;shadow=1;fontStyle=0;fontColor=#000000;html=1;" vertex="1" parent="1">
          <mxGeometry x="40" y="1169.0000000000002" width="120" height="60" as="geometry" />
        </mxCell>
        <mxCell id="MB5agvpYDD_RY6ioqbZ7-291" value="" style="edgeStyle=elbowEdgeStyle;elbow=horizontal;rounded=0;fontColor=#000000;endArrow=none;endFill=0;strokeWidth=8;strokeColor=#23445D;html=1;exitX=0;exitY=0.5;exitDx=0;exitDy=0;entryX=0;entryY=0.5;entryDx=0;entryDy=0;" edge="1" parent="1" source="155" target="MB5agvpYDD_RY6ioqbZ7-290">
          <mxGeometry width="100" height="100" relative="1" as="geometry">
            <mxPoint x="40" y="950" as="sourcePoint" />
            <mxPoint x="40" y="1130" as="targetPoint" />
            <Array as="points">
              <mxPoint x="20" y="1040" />
            </Array>
          </mxGeometry>
        </mxCell>
        <mxCell id="MB5agvpYDD_RY6ioqbZ7-292" value="Conseguir los materiales necesarios par ael montaje" style="whiteSpace=wrap;rounded=1;fillColor=#B9E0A5;strokeColor=#B9E0A5;shadow=1;fontStyle=0;html=1;fontColor=#000000;" vertex="1" parent="1">
          <mxGeometry x="695" y="1760" width="120" height="60" as="geometry" />
        </mxCell>
        <mxCell id="MB5agvpYDD_RY6ioqbZ7-294" value="" style="edgeStyle=elbowEdgeStyle;elbow=horizontal;rounded=0;fontColor=#000000;endArrow=none;endFill=0;strokeWidth=8;strokeColor=#23445D;html=1;exitX=0;exitY=0.5;exitDx=0;exitDy=0;entryX=0;entryY=0.5;entryDx=0;entryDy=0;" edge="1" parent="1" target="MB5agvpYDD_RY6ioqbZ7-292">
          <mxGeometry width="100" height="100" relative="1" as="geometry">
            <mxPoint x="695" y="1530" as="sourcePoint" />
            <mxPoint x="695" y="1710" as="targetPoint" />
            <Array as="points">
              <mxPoint x="675" y="1620" />
            </Array>
          </mxGeometry>
        </mxCell>
        <mxCell id="MB5agvpYDD_RY6ioqbZ7-295" value="Verificar que el montaje permita mantener las mismas condiciones controladas en [1]" style="whiteSpace=wrap;rounded=1;fillColor=#B9E0A5;strokeColor=#B9E0A5;shadow=1;fontStyle=0;html=1;fontColor=#000000;" vertex="1" parent="1">
          <mxGeometry x="850" y="1771" width="120" height="79" as="geometry" />
        </mxCell>
        <mxCell id="MB5agvpYDD_RY6ioqbZ7-296" value="" style="edgeStyle=elbowEdgeStyle;elbow=horizontal;rounded=0;fontColor=#000000;endArrow=none;endFill=0;strokeWidth=8;strokeColor=#23445D;html=1;exitX=0;exitY=0.5;exitDx=0;exitDy=0;entryX=0;entryY=0.5;entryDx=0;entryDy=0;" edge="1" parent="1" target="MB5agvpYDD_RY6ioqbZ7-295">
          <mxGeometry width="100" height="100" relative="1" as="geometry">
            <mxPoint x="850" y="1527.5" as="sourcePoint" />
            <mxPoint x="850" y="1712.5" as="targetPoint" />
            <Array as="points">
              <mxPoint x="830" y="1592.5" />
            </Array>
          </mxGeometry>
        </mxCell>
        <mxCell id="MB5agvpYDD_RY6ioqbZ7-297" value="Hacer el procesamiento incial de las imágenes." style="whiteSpace=wrap;rounded=1;fillColor=#B9E0A5;strokeColor=#B9E0A5;shadow=1;fontStyle=0;html=1;fontColor=#000000;" vertex="1" parent="1">
          <mxGeometry x="1009.9999999999998" y="1680" width="120" height="60" as="geometry" />
        </mxCell>
        <mxCell id="MB5agvpYDD_RY6ioqbZ7-298" value="" style="edgeStyle=elbowEdgeStyle;elbow=horizontal;rounded=0;fontColor=#000000;endArrow=none;endFill=0;strokeWidth=8;strokeColor=#23445D;html=1;entryX=0;entryY=0.5;entryDx=0;entryDy=0;" edge="1" parent="1" target="MB5agvpYDD_RY6ioqbZ7-297">
          <mxGeometry width="100" height="100" relative="1" as="geometry">
            <mxPoint x="1010" y="1530" as="sourcePoint" />
            <mxPoint x="1010" y="1630" as="targetPoint" />
            <Array as="points">
              <mxPoint x="990" y="1580" />
            </Array>
          </mxGeometry>
        </mxCell>
        <mxCell id="MB5agvpYDD_RY6ioqbZ7-299" value="Hacer un algoritmo para medir el cambio en el ángulo de los reflejos." style="whiteSpace=wrap;rounded=1;fillColor=#B9E0A5;strokeColor=#B9E0A5;shadow=1;fontStyle=0;html=1;fontColor=#000000;" vertex="1" parent="1">
          <mxGeometry x="1009.9999999999998" y="1760" width="120" height="60" as="geometry" />
        </mxCell>
        <mxCell id="MB5agvpYDD_RY6ioqbZ7-300" value="" style="edgeStyle=elbowEdgeStyle;elbow=horizontal;rounded=0;fontColor=#000000;endArrow=none;endFill=0;strokeWidth=8;strokeColor=#23445D;html=1;entryX=0;entryY=0.5;entryDx=0;entryDy=0;" edge="1" parent="1" target="MB5agvpYDD_RY6ioqbZ7-299">
          <mxGeometry width="100" height="100" relative="1" as="geometry">
            <mxPoint x="1010" y="1530" as="sourcePoint" />
            <mxPoint x="1010" y="1710" as="targetPoint" />
            <Array as="points">
              <mxPoint x="990" y="1580" />
            </Array>
          </mxGeometry>
        </mxCell>
        <mxCell id="MB5agvpYDD_RY6ioqbZ7-301" value="Analizar los resultados obtenidos, igual que se hizo en el objetivo anterior." style="whiteSpace=wrap;rounded=1;fillColor=#B9E0A5;strokeColor=#B9E0A5;shadow=1;fontStyle=0;html=1;fontColor=#000000;" vertex="1" parent="1">
          <mxGeometry x="1009.9999999999998" y="1840" width="120" height="60" as="geometry" />
        </mxCell>
        <mxCell id="MB5agvpYDD_RY6ioqbZ7-302" value="" style="edgeStyle=elbowEdgeStyle;elbow=horizontal;rounded=0;fontColor=#000000;endArrow=none;endFill=0;strokeWidth=8;strokeColor=#23445D;html=1;entryX=0;entryY=0.5;entryDx=0;entryDy=0;" edge="1" parent="1" target="MB5agvpYDD_RY6ioqbZ7-301">
          <mxGeometry width="100" height="100" relative="1" as="geometry">
            <mxPoint x="1010" y="1530" as="sourcePoint" />
            <mxPoint x="1010" y="1790" as="targetPoint" />
            <Array as="points">
              <mxPoint x="990" y="1580" />
            </Array>
          </mxGeometry>
        </mxCell>
        <mxCell id="MB5agvpYDD_RY6ioqbZ7-303" value="Analizar los Datos" style="whiteSpace=wrap;rounded=1;fillColor=#1ba1e2;strokeColor=#006EAF;shadow=1;fontColor=#ffffff;fontStyle=1;html=1;" vertex="1" parent="1">
          <mxGeometry x="520" y="1490.0000000000002" width="120" height="60" as="geometry" />
        </mxCell>
        <mxCell id="MB5agvpYDD_RY6ioqbZ7-304" value="Discutir la efectividad de los procedimientos implementados." style="whiteSpace=wrap;rounded=1;fillColor=#647687;strokeColor=#314354;shadow=1;fontStyle=0;fontColor=#ffffff;html=1;" vertex="1" parent="1">
          <mxGeometry x="520" y="1689" width="130" height="70" as="geometry" />
        </mxCell>
        <mxCell id="MB5agvpYDD_RY6ioqbZ7-305" value="Generar Ilustraciones para visualizar los resultados obtenidos." style="whiteSpace=wrap;rounded=1;fillColor=#647687;strokeColor=#314354;shadow=1;fontStyle=0;fontColor=#ffffff;html=1;" vertex="1" parent="1">
          <mxGeometry x="530" y="1590" width="110" height="79" as="geometry" />
        </mxCell>
        <mxCell id="MB5agvpYDD_RY6ioqbZ7-306" value="Discutir el efecto del sistema híbrido en el tratameinto de la presbicia." style="whiteSpace=wrap;rounded=1;fillColor=#647687;strokeColor=#314354;shadow=1;fontStyle=0;fontColor=#ffffff;html=1;" vertex="1" parent="1">
          <mxGeometry x="525" y="1780" width="120" height="60" as="geometry" />
        </mxCell>
        <mxCell id="MB5agvpYDD_RY6ioqbZ7-307" value="" style="edgeStyle=elbowEdgeStyle;elbow=horizontal;rounded=0;fontColor=#000000;endArrow=none;endFill=0;strokeWidth=8;strokeColor=#23445D;html=1;" edge="1" parent="1" source="MB5agvpYDD_RY6ioqbZ7-303" target="MB5agvpYDD_RY6ioqbZ7-304">
          <mxGeometry width="100" height="100" relative="1" as="geometry">
            <mxPoint x="490" y="1539.0000000000005" as="sourcePoint" />
            <mxPoint x="499.99999999999955" y="1639" as="targetPoint" />
            <Array as="points">
              <mxPoint x="500" y="1589" />
            </Array>
          </mxGeometry>
        </mxCell>
        <mxCell id="MB5agvpYDD_RY6ioqbZ7-308" value="" style="edgeStyle=elbowEdgeStyle;elbow=horizontal;rounded=0;fontColor=#000000;endArrow=none;endFill=0;strokeWidth=8;strokeColor=#23445D;html=1;" edge="1" parent="1" source="MB5agvpYDD_RY6ioqbZ7-303" target="MB5agvpYDD_RY6ioqbZ7-305">
          <mxGeometry width="100" height="100" relative="1" as="geometry">
            <mxPoint x="500" y="1539" as="sourcePoint" />
            <mxPoint x="500" y="1719" as="targetPoint" />
            <Array as="points">
              <mxPoint x="500" y="1629" />
            </Array>
          </mxGeometry>
        </mxCell>
        <mxCell id="MB5agvpYDD_RY6ioqbZ7-309" value="" style="edgeStyle=elbowEdgeStyle;elbow=horizontal;rounded=0;fontColor=#000000;endArrow=none;endFill=0;strokeWidth=8;strokeColor=#23445D;html=1;" edge="1" parent="1" source="MB5agvpYDD_RY6ioqbZ7-303" target="MB5agvpYDD_RY6ioqbZ7-306">
          <mxGeometry width="100" height="100" relative="1" as="geometry">
            <mxPoint x="500" y="1539" as="sourcePoint" />
            <mxPoint x="500" y="1799" as="targetPoint" />
            <Array as="points">
              <mxPoint x="500" y="1679" />
            </Array>
          </mxGeometry>
        </mxCell>
        <mxCell id="MB5agvpYDD_RY6ioqbZ7-310" value="" style="edgeStyle=elbowEdgeStyle;elbow=vertical;rounded=0;fontColor=#000000;endArrow=none;endFill=0;strokeWidth=8;strokeColor=#23445D;exitX=0.5;exitY=1;exitDx=0;exitDy=0;html=1;entryX=0.5;entryY=0;entryDx=0;entryDy=0;" edge="1" parent="1" target="MB5agvpYDD_RY6ioqbZ7-303">
          <mxGeometry width="100" height="100" relative="1" as="geometry">
            <mxPoint x="225" y="1420" as="sourcePoint" />
            <mxPoint x="580" y="1490" as="targetPoint" />
          </mxGeometry>
        </mxCell>
      </root>
    </mxGraphModel>
  </diagram>
</mxfile>
